DBRep_DrawableShape

CASCADE Topology V1, (c) Matra-Datavision
Locations 49
1
              1               0               0               0 
              0               1               0               0 
              0               0               1               0 
1
              1               0               0               0 
              0               1               0               0 
              0               0               1               0 
1
              1               0               0               0 
              0               1               0               0 
              0               0               1               0 
2  2 1 3 1 0
1
              1               0               0               0 
              0               1               0               0 
              0               0               1               0 
1
              1               0               0               0 
              0               1               0               0 
              0               0               1               0 
1
              1               0               0               0 
              0               1               0               0 
              0               0               1               0 
2  5 1 6 1 7 1 0
2  7 -1 0
1
              1               0               0               0 
              0               1               0               0 
              0               0               1               0 
2  10 -1 7 -1 0
2  7 -1 6 -1 5 -1 0
2  10 -1 7 -1 6 -1 5 -1 0
1
              1               0               0               0 
              0               1               0               0 
              0               0               1               0 
2  3 -1 2 -1 0
2  10 -1 0
2  7 1 2 1 3 1 0
1
              1               0               0               0 
              0               1               0               0 
              0               0               1               0 
1
              1               0               0               0 
              0               1               0               0 
              0               0               1               0 
2  18 1 19 1 0
2  19 -1 18 -1 0
2  7 -1 19 -1 18 -1 0
2  10 -1 7 -1 19 -1 18 -1 0
2  5 1 6 1 0
2  3 -1 2 -1 7 -1 0
2  6 -1 5 -1 0
2  18 1 19 1 7 1 0
2  14 1 2 1 3 1 0
1
              1               0               0               0 
              0               1               0               0 
              0               0               1               0 
1
              1               0               0               0 
              0               1               0               0 
              0               0               1               0 
2  29 1 30 1 0
1
              1               0               0              14 
              0               1               0               0 
              0               0               1               0 
2  32 1 29 1 30 1 0
2  5 1 6 1 7 1 2 1 3 1 0
2  3 -1 2 -1 7 -1 6 -1 5 -1 0
1
              1               0               0               0 
              0               1               0               0 
              0               0               1               0 
1
              0               0               1               0 
              1               0               0               0 
              0               1               0               0 
1
              1               0               0              -7 
              0               1               0              -0 
              0               0               1              -0 
2  36 1 37 1 38 1 29 1 30 1 0
2  38 -1 37 -1 36 -1 0
2  32 -1 38 -1 37 -1 36 -1 0
2  30 -1 29 -1 38 -1 37 -1 36 -1 0
2  37 -1 36 -1 0
2  36 1 37 1 38 1 32 1 29 1 30 1 0
2  30 -1 29 -1 32 -1 38 -1 37 -1 36 -1 0
2  30 -1 29 -1 0
2  38 1 32 1 0
2  18 1 19 1 7 1 2 1 3 1 0
2  3 -1 2 -1 7 -1 19 -1 18 -1 0
Curve2ds 60
1 43.568809597949731 -245 -4.0000000000000003e-17 1 
1 246.25000000000009 -499.99999999999994 1 3.2999999999999999e-16 
1 6.2831853071795862 -500 -1 0 
1 246.25000000000009 -499.99999999999994 1 3.2999999999999999e-16 
1 6.2831853071795862 -500 -1 0 
1 161.80015030293362 -510 1 6.0000000000000001e-17 
1 11.612371796992214 -255 1.1e-16 -1 
1 149.34882226495748 -490 -1 -6.0000000000000001e-17 
8 -1.4040308312481919 26.654269014733927
1 13.650880328997115 -493 1 6.0000000000000001e-17 
8 -1.4040308312481919 26.654269014733927
1 6.8632631867393883 -11.834530102979762 -0.55763161910474024 0.83008853586507614 
8 -260.5 -246.5
1 12.246849497748912 -246.5 -4.0000000000000003e-17 1 
8 -260.5 -246.5
1 15.646195172441281 246.5 -4.0000000000000003e-17 1 
8 -1.4040308312481919 26.654269014733927
1 13.650880328997115 -507 1 6.0000000000000001e-17 
8 -1.4040308312481919 26.654269014733927
1 6.8632631867393883 -11.834530102979762 -0.55763161910474024 0.83008853586507614 
8 246.5 260.5
1 40.30514934373101 -246.5 1.1e-16 -1 
8 246.5 260.5
1 2.709126961985425 246.5 -4.9999999999999999e-17 -1 
1 -253.74999999999989 -469.99999999999994 -1 2.2e-16 
1 6.2831853071795862 -470 -1 0 
1 -253.74999999997772 -469.99999999999994 -1 2.2e-16 
1 6.2831853071795862 -470 -1 0 
1 -8.9000000000000007e-16 0 0 -1 
1 14.999999999999996 0 0 -1 
8 3.7499999999999862 18.75
1 -3.7500000000000004 -504 1 0 
8 3.7499999999999862 18.75
1 3.7500000000000004 -10 1 0 
1 6.2831853071795871 0 0 -1 
1 0 0 0 -1 
1 3.1415926535897927 0 0 -1 
1 15.000000000000002 0 0 -1 
1 6.2831853071795862 -504 -1 0 
2 22.5 -7 0 -1 -1 -0 3
8 3.7499999999999849 18.75
1 -3.7499999999999991 -504 1 0 
8 3.7499999999999849 18.75
1 3.7499999999999991 -4 1 0 
1 3.1415926535897936 0 0 -1 
1 0 0 0 -1 
1 6.2831853071795862 -504 -1 0 
2 7.4999999999999991 -7 0 -1 -1 -0 3
1 0 0 1 0 
1 0 -14 1 0 
1 -8 -13 1 0 
1 0 0 1 0 
1 0 -14 1 0 
1 -8 13 0 -1 
1 26 0 0 -1 
1 0 0 0 -1 
8 1.7499999999998708 6.749999999999984
1 -1.7499999999998708 -474 1 -2.2e-16 
8 1.7499999999998708 6.749999999999984
1 1.7499999999997655 -10 1 0 
1 6.2831853071795862 -474 -1 0 
2 8.5000000000448797 -6.9999999999999085 0 -1 -1 -0 2.9999999999999996
8 1.7499999999775588 6.7500000000675424
1 -1.7499999999775588 -474 1 -2.2e-16 
8 1.7499999999775588 6.7500000000675424
1 1.7499999999775264 -4.000000000000032 1 1.8209999999999999e-14 
1 6.2831853071795862 -474 -1 0 
2 3.499999999954996 -7 0 -1 -1 -0 2.9999999999999996
1 -1.5082160000000001e-11 0 0 -1 
1 4.9999999999999982 -1.1100000000000001e-15 1.1e-16 -1 
1 6.2831853071944668 0 0 -1 
1 0 0 1.1e-16 -1 
1 3.1415926535897629 0 0 -1 
1 5.0000000000898854 -1.1100000000000001e-15 1.1e-16 -1 
1 3.1415926535897634 0 0 -1 
1 0 0 1.1e-16 -1 
Curves 46
1 -10 0 0 1 0 0 
1 10 0 -500 0 0 1 
1 -255 3.5500000000000001e-15 2.1800798482321664 -1 0 -4.0000000000000003e-17 
1 -10 0 -500 0 0 1 
1 8.9000000000000007e-16 30 -5e-15 -1 0 0 
1 9.9999999999999982 500 -1.6653e-13 0 -1 3.2999999999999999e-16 
1 -9.9999999999999982 500 -1.6653e-13 0 -1 3.2999999999999999e-16 
1 3 253.75000000000009 -8.3269999999999995e-14 0 1 -3.2999999999999999e-16 
2 -9.9999999999999998e-17 22.5 0 0 0 -1 1 0 0 0 -1 0 3
1 -3 253.75000000000009 -8.3269999999999995e-14 0 1 -3.2999999999999999e-16 
2 0 7.4999999999999991 0 0 0 -1 1 0 0 0 -1 0 3
1 10 30 -500 0 0 1 
1 9.9999999999999982 500 19.999999999999829 0 -1 3.2999999999999999e-16 
1 10 -98.14248049916506 -63.749454098012137 -0 -0.83008853586507614 -0.55763161910474024 
1 -245 26.526672665660236 19.999999999999989 1 -4.9999999999999999e-17 0 
1 -10 -87.806775838545676 -56.806199884191273 0 0.83008853586507614 0.55763161910474024 
1 -7 24.834530102979762 18.863263186739388 0 -0.83008853586507614 -0.55763161910474024 
1 -253.5 26 19.646195172441281 -1 -0 -4.0000000000000003e-17 
1 7 24.834530102979762 18.863263186739388 0 -0.83008853586507614 -0.55763161910474024 
1 -253.5 2.709126961985425 4.0000000000000018 1 -4.9999999999999999e-17 0 
1 -9.9999999999999982 500 19.999999999999829 0 -1 3.2999999999999999e-16 
1 -10 30 -500 0 0 1 
1 10 30 19.999999999999993 1 0 0 
1 3 30 -246.25000000000023 -0 -0 -1 
2 -9.1090000000000006e-14 30 12.50000000004488 0 1 -2.2e-16 1 0 0 0 -2.2e-16 -1 2.9999999999999996
1 -2.9999999999953797 30 -246.25000000002262 1.8209999999999999e-14 0 -1 
2 0 30 7.4999999999549951 0 1 -2.2e-16 1 0 0 0 -2.2e-16 -1 2.9999999999999996
1 3 22.499999999999996 -500 0 0 1 
1 3 3.7500000000000004 4 0 1 -0 
1 3 7.5000000000000009 -500 0 0 1 
1 -3 22.5 -500 0 0 1 
2 -9.9999999999999998e-17 22.5 4 -0 -0 -1 1 0 0 0 -1 0 3
1 -3 3.7499999999999991 4 0 1 -0 
1 -3 7.4999999999999982 -500 0 0 1 
2 0 7.4999999999999991 4 -0 -0 -1 1 0 0 0 -1 0 3
1 26 4 0 0 1 0 
1 0 4 0 1 0 0 
1 -7 26 4 1 0 0 
1 3 26 5.7499999999997655 0 0 1 
2 -9.1090000000000006e-14 26 12.50000000004488 0 1 -2.2e-16 1 0 0 0 -2.2e-16 -1 2.9999999999999996
1 -2.999999999999968 26 5.7499999999775264 -1.8209999999999999e-14 0 1 
2 0 26 7.499999999954996 0 1 -2.2e-16 1 0 0 0 -2.2e-16 -1 2.9999999999999996
1 2.9999999999999543 500 12.499999999999529 0 -1 3.2999999999999999e-16 
1 2.9999999999999996 500 7.499999999999531 0 -1 3.2999999999999999e-16 
1 -3.0000000000000906 500 12.500000000044865 0 -1 3.2999999999999999e-16 
1 -2.9999999999999996 500 7.49999999995498 0 -1 3.2999999999999999e-16 
Polygon3D 0
PolygonOnTriangulations 96
2 1 2 
p 0.116666666666667 1 2e-15 20 
2 3 4 
p 0.116666666666667 1 2e-15 20 
2 2 4 
p 0.116666666666667 1 500 502.180079848232 
2 3 4 
p 0.116666666666667 1 500 502.180079848232 
2 4 3 
p 0.116666666666667 1 -265 -245 
2 2 3 
p 0.116666666666667 1 -265 -245 
2 1 3 
p 0.116666666666667 1 500 502.180079848232 
2 2 5 
p 0.116666666666667 1 500 502.180079848232 
2 1 2 
p 0.116666666666667 1 -10 10 
2 1 2 
p 0.116666666666667 1 -10 10 
2 1 4 
p 0.116666666666667 1 470 500 
2 1 3 
p 0.116666666666667 1 470 500 
2 2 3 
p 0.116666666666667 1 470 500 
2 1 2 
p 0.116666666666667 1 470 500 
2 5 6 
p 0.116666666666667 1 -246.25 -231.25 
2 1 2 
p 0.116666666666667 1 -246.25 -231.25 
14 1 2 3 4 5 6 7 8 9 10 11 12 13 14 
p 0.116666666666667 1 3.14159265358979 3.38325362694285 3.62491460029592 3.86657557364898 4.10823654700204 4.3498975203551 4.59155849370816 4.83321946706122 5.07488044041428 5.31654141376734 5.5582023871204 5.79986336047346 6.04152433382652 6.28318530717959 
14 20 21 22 23 24 25 26 27 28 29 30 31 32 6 
p 0.116666666666667 1 3.14159265358979 3.38325362694285 3.62491460029592 3.86657557364898 4.10823654700204 4.3498975203551 4.59155849370816 4.83321946706122 5.07488044041428 5.31654141376734 5.5582023871204 5.79986336047346 6.04152433382652 6.28318530717959 
2 19 20 
p 0.116666666666667 1 -246.25 -231.25 
2 1 2 
p 0.116666666666667 1 -246.25 -231.25 
14 1 3 4 5 6 7 8 9 10 11 12 13 14 15 
p 0.116666666666667 1 -1e-15 0.24166097335306 0.483321946706121 0.724982920059182 0.966643893412243 1.2083048667653 1.44996584011837 1.69162681347143 1.93328778682449 2.17494876017755 2.41660973353061 2.65827070688367 2.89993168023673 3.14159265358979 
14 5 7 8 9 10 11 12 13 14 15 16 17 18 19 
p 0.116666666666667 1 -1e-15 0.24166097335306 0.483321946706121 0.724982920059182 0.966643893412243 1.2083048667653 1.44996584011837 1.69162681347143 1.93328778682449 2.17494876017755 2.41660973353061 2.65827070688367 2.89993168023673 3.14159265358979 
2 1 2 
p 0.116666666666667 1 500 520 
2 1 3 
p 0.116666666666667 1 500 520 
2 2 5 
p 0.116666666666667 1 470 473.47332733434 
2 3 4 
p 0.116666666666667 1 470 473.47332733434 
2 5 4 
p 0.116666666666667 1 -150.187778505941 -118.231340704984 
2 1 2 
p 0.116666666666667 1 -150.187778505941 -118.231340704984 
2 4 1 
p 0.116666666666667 1 235 255 
2 2 4 
p 0.116666666666667 1 235 255 
2 3 4 
p 0.116666666666667 1 105.780012667008 137.736450467965 
2 5 4 
p 0.116666666666667 1 105.780012667008 137.736450467965 
2 5 6 
p 0.116666666666667 1 -1.40403083124819 26.6542690147339 
2 1 2 
p 0.116666666666667 1 -1.40403083124819 26.6542690147339 
2 8 5 
p 0.116666666666667 1 -260.5 -246.5 
2 4 2 
p 0.116666666666667 1 -260.5 -246.5 
2 8 7 
p 0.116666666666667 1 -1.40403083124819 26.6542690147339 
2 1 2 
p 0.116666666666667 1 -1.40403083124819 26.6542690147339 
2 6 7 
p 0.116666666666667 1 246.5 260.5 
2 1 3 
p 0.116666666666667 1 246.5 260.5 
2 3 4 
p 0.116666666666667 1 470 473.47332733434 
2 1 2 
p 0.116666666666667 1 470 473.47332733434 
2 1 3 
p 0.116666666666667 1 500 520 
2 2 4 
p 0.116666666666667 1 500 520 
2 4 3 
p 0.116666666666667 1 -20 -2e-15 
2 1 3 
p 0.116666666666667 1 -20 -2e-15 
2 5 6 
p 0.116666666666667 1 -258.75 -253.75 
2 1 2 
p 0.116666666666667 1 -258.75 -253.75 
14 1 2 3 4 5 6 7 8 9 10 11 12 13 14 
p 0.116666666666667 1 3.14159265358982 3.38325362694404 3.62491460029826 3.86657557365248 4.1082365470067 4.34989752036092 4.59155849371514 4.83321946706936 5.07488044042357 5.31654141377779 5.55820238713201 5.79986336048623 6.04152433384045 6.28318530719467 
14 20 21 22 23 24 25 26 27 28 29 30 31 32 5 
p 0.116666666666667 1 3.14159265358982 3.38325362694404 3.62491460029826 3.86657557365248 4.1082365470067 4.34989752036092 4.59155849371514 4.83321946706936 5.07488044042357 5.31654141377779 5.55820238713201 5.79986336048623 6.04152433384045 6.28318530719467 
2 20 19 
p 0.116666666666667 1 -258.750000000068 -253.749999999978 
2 1 2 
p 0.116666666666667 1 -258.750000000068 -253.749999999978 
14 1 2 3 4 5 6 7 8 9 10 11 12 13 14 
p 0.116666666666667 1 -1.4881e-11 0.241660973339327 0.483321946693535 0.724982920047743 0.966643893401951 1.20830486675616 1.44996584011037 1.69162681346457 1.93328778681878 2.17494876017299 2.4166097335272 2.65827070688141 2.89993168023561 3.14159265358982 
14 6 7 8 9 10 11 12 13 14 15 16 17 18 19 
p 0.116666666666667 1 -1.4881e-11 0.241660973339327 0.483321946693535 0.724982920047743 0.966643893401951 1.20830486675616 1.44996584011037 1.69162681346457 1.93328778681878 2.17494876017299 2.4166097335272 2.65827070688141 2.89993168023561 3.14159265358982 
2 14 15 
p 0.116666666666667 1 500 504 
2 2 4 
p 0.116666666666667 1 500 504 
2 3 4 
p 0.116666666666667 1 3.74999999999999 18.75 
2 5 6 
p 0.116666666666667 1 3.74999999999999 18.75 
2 1 2 
p 0.116666666666667 1 500 504 
2 1 3 
p 0.116666666666667 1 500 504 
2 1 16 
p 0.116666666666667 1 500 504 
2 2 4 
p 0.116666666666667 1 500 504 
14 16 17 18 19 20 21 22 23 24 25 26 27 28 15 
p 0.116666666666667 1 3.14159265358979 3.38325362694285 3.62491460029592 3.86657557364898 4.10823654700204 4.3498975203551 4.59155849370816 4.83321946706122 5.07488044041428 5.31654141376734 5.5582023871204 5.79986336047346 6.04152433382652 6.28318530717959 
14 20 21 22 23 24 25 26 27 28 29 30 31 32 6 
p 0.116666666666667 1 3.14159265358979 3.38325362694285 3.62491460029592 3.86657557364898 4.10823654700204 4.3498975203551 4.59155849370816 4.83321946706122 5.07488044041428 5.31654141376734 5.5582023871204 5.79986336047346 6.04152433382652 6.28318530717959 
2 3 4 
p 0.116666666666667 1 3.74999999999998 18.75 
2 19 20 
p 0.116666666666667 1 3.74999999999998 18.75 
2 15 16 
p 0.116666666666667 1 500 504 
2 1 3 
p 0.116666666666667 1 500 504 
14 2 17 18 19 20 21 22 23 24 25 26 27 28 16 
p 0.116666666666667 1 -1e-15 0.24166097335306 0.483321946706121 0.724982920059182 0.966643893412243 1.2083048667653 1.44996584011837 1.69162681347143 1.93328778682449 2.17494876017755 2.41660973353061 2.65827070688367 2.89993168023673 3.14159265358979 
14 5 7 8 9 10 11 12 13 14 15 16 17 18 19 
p 0.116666666666667 1 -1e-15 0.24166097335306 0.483321946706121 0.724982920059182 0.966643893412243 1.2083048667653 1.44996584011837 1.69162681347143 1.93328778682449 2.17494876017755 2.41660973353061 2.65827070688367 2.89993168023673 3.14159265358979 
2 3 1 
p 0.116666666666667 1 0 15.6461951724413 
2 1 2 
p 0.116666666666667 1 0 15.6461951724413 
2 2 3 
p 0.116666666666667 1 2.70912696198541 26 
2 1 2 
p 0.116666666666667 1 2.70912696198541 26 
2 3 4 
p 0.116666666666667 1 0 15.6461951724413 
2 3 1 
p 0.116666666666667 1 0 15.6461951724413 
2 1 3 
p 0.116666666666667 1 0 14 
2 2 4 
p 0.116666666666667 1 0 14 
2 5 6 
p 0.116666666666667 1 1.74999999999987 6.74999999999998 
2 3 4 
p 0.116666666666667 1 1.74999999999987 6.74999999999998 
14 16 17 18 19 20 21 22 23 24 25 26 27 28 15 
p 0.116666666666667 1 3.14159265358976 3.38325362694399 3.62491460029821 3.86657557365243 4.10823654700666 4.34989752036088 4.5915584937151 4.83321946706933 5.07488044042355 5.31654141377777 5.558202387132 5.79986336048622 6.04152433384044 6.28318530719467 
14 20 21 22 23 24 25 26 27 28 29 30 31 32 6 
p 0.116666666666667 1 3.14159265358976 3.38325362694399 3.62491460029821 3.86657557365243 4.10823654700666 4.34989752036088 4.5915584937151 4.83321946706933 5.07488044042355 5.31654141377777 5.558202387132 5.79986336048622 6.04152433384044 6.28318530719467 
2 19 20 
p 0.116666666666667 1 1.74999999997756 6.75000000006754 
2 3 4 
p 0.116666666666667 1 1.74999999997756 6.75000000006754 
14 16 17 18 19 20 21 22 23 24 25 26 27 28 15 
p 0.116666666666667 1 -1.4881e-11 0.241660973339327 0.483321946693535 0.724982920047743 0.966643893401951 1.20830486675616 1.44996584011037 1.69162681346457 1.93328778681878 2.17494876017299 2.4166097335272 2.65827070688141 2.89993168023561 3.14159265358982 
14 5 7 8 9 10 11 12 13 14 15 16 17 18 19 
p 0.116666666666667 1 -1.4881e-11 0.241660973339327 0.483321946693535 0.724982920047743 0.966643893401951 1.20830486675616 1.44996584011037 1.69162681346457 1.93328778681878 2.17494876017299 2.4166097335272 2.65827070688141 2.89993168023561 3.14159265358982 
2 2 3 
p 0.116666666666667 1 2.70912696198541 26 
2 3 4 
p 0.116666666666667 1 2.70912696198541 26 
2 14 15 
p 0.116666666666667 1 470 474 
2 1 4 
p 0.116666666666667 1 470 474 
2 1 16 
p 0.116666666666667 1 470 474 
2 2 3 
p 0.116666666666667 1 470 474 
2 1 16 
p 0.116666666666667 1 470 474 
2 1 4 
p 0.116666666666667 1 470 474 
2 14 15 
p 0.116666666666667 1 470 474 
2 2 3 
p 0.116666666666667 1 470 474 
Surfaces 18
1 -10 0 -500 0 1 0 1 0 0 0 0 -1 
1 -500 36.165969368546328 26.475425686803071 3.0000000000000001e-17 0.55763161910474024 -0.83008853586507614 5.9999999999999989e-17 -0.83008853586507614 -0.55763161910474024 -1 -3.3076363578762346e-17 -5.8360553222236696e-17 
1 -9.9999999999999982 500 -1.6653e-13 0 3.2999999999999999e-16 1 1 0 -0 -0 1 -3.2999999999999999e-16 
1 3 7.5000000000000009 -500 -1 0 0 0 1 0 0 0 -1 
2 -9.9999999999999998e-17 22.5 -500 -0 -0 -1 1 0 0 -0 1 -0 3
1 -3 7.4999999999999982 -500 -1 0 0 0 1 0 0 0 -1 
2 0 7.4999999999999991 -500 -0 -0 -1 1 0 0 -0 1 -0 3
1 10 0 -500 -1 0 0 0 1 0 0 0 -1 
1 -7 13 12 1 0 0 -0 0 1 0 -1 0 
1 -7 26 4 0 -1 0 0 0 1 -1 0 0 
1 -7 0 4 0 0 1 0 1 0 -1 0 0 
1 -10 30 -500 1 0 0 0 -1 0 0 0 -1 
1 10 30 -500 0 -1 0 -1 0 0 -0 -0 -1 
1 2.9999999999999996 500 7.499999999999531 -1 0 0 0 2.2e-16 1 0 1 -2.2e-16 
2 -9.1090000000000006e-14 500 12.500000000044775 0 1 -2.2e-16 1 0 0 -0 2.2e-16 1 2.9999999999999996
1 -2.9999999999999996 500 7.49999999995498 -1 -0 -1.8209999999999999e-14 -1.8209999999999999e-14 2.2e-16 1 4.0061999999999997e-30 1 -2.2e-16 
2 0 500 7.4999999999548903 0 1 -2.2e-16 1 0 0 -0 2.2e-16 1 2.9999999999999996
1 9.9999999999999982 500 19.999999999999829 -0 -3.2999999999999999e-16 -1 -1 0 0 0 1 -3.2999999999999999e-16 
Triangulations 19
4 2 1 0.116666666666667
-10 0 0 10 0 0 -10 0 2.18007984823225 10 0 2.18007984823225 0 -500 20 -500 0 -502.180079848232 20 -502.180079848232 2 1 3 2 3 4 
32 32 1 0.116666666666667
10 30 -5e-15 -10 30 -5e-15 -10 0 0 10 0 0 3 7.5 0 3 22.5 0 2.91282545227816 6.78205300713733 0 2.65636807695963 6.1058304838687 0 2.24553224451331 5.51063202527762 0 1.70419424019347 5.03104840231903 0 1.06381466112761 4.69495127194376 0 0.361610040765972 4.52187337770584 0 -0.361610040765967 4.52187337770584 0 -1.0638146611276 4.69495127194375 0 -1.70419424019347 5.03104840231903 0 -2.2455322445133 5.51063202527761 0 -2.65636807695963 6.10583048386869 0 -2.91282545227816 6.78205300713733 0 -3 7.5 0 -3 22.5 0 -2.91282545227816 23.2179469928627 0 -2.65636807695963 23.8941695161313 0 -2.2455322445133 24.4893679747224 0 -1.70419424019347 24.968951597681 0 -1.06381466112761 25.3050487280562 0 -0.361610040765968 25.4781266222942 0 0.36161004076597 25.4781266222942 0 1.06381466112761 25.3050487280562 0 1.70419424019347 24.968951597681 0 2.2455322445133 24.4893679747224 0 2.65636807695963 23.8941695161313 0 2.91282545227816 23.2179469928627 0 20 -470 0 -470 2.2364316059975e-16 -500 20 -500 13 -492.5 13 -477.5 12.9128254522782 -493.217946992863 12.6563680769596 -493.894169516131 12.2455322445133 -494.489367974722 11.7041942401935 -494.968951597681 11.0638146611276 -495.305048728056 10.361610040766 -495.478126622294 9.63838995923403 -495.478126622294 8.93618533887239 -495.305048728056 8.29580575980653 -494.968951597681 7.7544677554867 -494.489367974722 7.34363192304037 -493.894169516131 7.08717454772184 -493.217946992863 7 -492.5 7 -477.5 7.08717454772184 -476.782053007137 7.34363192304037 -476.105830483869 7.7544677554867 -475.510632025278 8.29580575980653 -475.031048402319 8.93618533887239 -474.694951271944 9.63838995923403 -474.521873377706 10.361610040766 -474.521873377706 11.0638146611276 -474.694951271944 11.7041942401935 -475.031048402319 12.2455322445133 -475.510632025278 12.6563680769596 -476.105830483869 12.9128254522782 -476.782053007137 15 16 3 17 3 16 14 15 3 18 3 17 13 14 3 19 3 18 4 7 8 4 8 9 4 9 10 4 10 11 4 11 12 4 12 13 4 13 3 5 7 4 2 19 20 2 3 19 21 2 20 22 2 21 23 2 22 24 2 23 25 2 24 26 2 25 1 6 5 1 26 27 1 27 28 1 28 29 1 29 30 1 30 31 1 31 32 1 32 6 1 5 4 1 2 26 
5 3 1 0.116666666666667
10 30 -5e-15 10 30 20 10 0 0 10 0 2.18007984823225 10 26.52667266566 20 30 -500 30 -520 0 -500 0 -502.180079848232 26.52667266566 -520 1 3 4 1 4 5 1 5 2 
8 8 1 0.116666666666667
10 26.52667266566 20 10 0 2.18007984823225 -10 0 2.18007984823225 -10 26.52667266566 20 -7 26 19.6461951724413 -7 2.70912696198541 4 7 2.70912696198541 4 7 26 19.6461951724413 11.6123717969922 -510 43.5688095979497 -510 43.5688095979497 -490 11.6123717969922 -490 12.2468494977489 -493 40.305149343731 -493 40.305149343731 -507 12.2468494977489 -507 7 8 1 2 7 1 6 4 5 6 7 2 3 6 2 3 4 6 4 1 8 4 8 5 
5 3 1 0.116666666666667
-10 30 -5e-15 -10 0 0 -10 30 20 -10 26.52667266566 20 -10 0 2.18007984823225 0 -500 30 -500 0 -520 3.47332733433991 -520 30 -502.180079848232 1 3 4 5 1 4 2 1 5 
32 32 1 0.116666666666667
10 30 -5e-15 -10 30 -5e-15 10 30 20 -10 30 20 2.99999999999995 30 12.4999999999997 3 30 7.49999999999969 2.91282545228802 30 6.78205300713233 2.65636807697718 30 6.10583048385713 2.24553224453606 30 5.5106320252583 1.70419424021888 30 5.03104840229157 1.06381466115326 30 4.69495127190848 0.361610040789792 30 4.52187337766373 -0.361610040745562 30 4.52187337765836 -1.0638146611116 30 4.69495127189268 -1.70419424018221 30 5.03104840226626 -2.24553224450652 30 5.51063202522495 -2.65636807695647 30 6.10583048381767 -2.91282545227735 30 6.78205300708906 -3 30 7.49999999995514 -3.00000000000009 30 12.500000000045 -2.91282545227739 30 13.217946992911 -2.65636807695645 30 13.8941695161824 -2.24553224450642 30 14.4893679747751 -1.70419424018205 30 14.9689515977338 -1.06381466111138 30 15.3050487281073 -0.361610040745282 30 15.4781266223416 0.361610040790105 30 15.4781266223361 1.06381466115358 30 15.3050487280912 1.70419424021918 30 14.968951597708 2.24553224453631 30 14.4893679747412 2.65636807697734 30 13.8941695161423 2.91282545228806 30 13.217946992867 0 -500 20 -500 2e-15 -520 20 -520 7.00000000000009 -512.5 7 -507.5 7.08717454771198 -506.782053007132 7.34363192302282 -506.105830483857 7.75446775546394 -505.510632025258 8.29580575978112 -505.031048402292 8.93618533884674 -504.694951271908 9.63838995921021 -504.521873377664 10.3616100407456 -504.521873377658 11.0638146611116 -504.694951271893 11.7041942401822 -505.031048402266 12.2455322445065 -505.510632025225 12.6563680769565 -506.105830483818 12.9128254522774 -506.782053007089 13 -507.499999999955 13.0000000000001 -512.500000000045 12.9128254522774 -513.217946992911 12.6563680769565 -513.894169516182 12.2455322445064 -514.489367974775 11.704194240182 -514.968951597734 11.0638146611114 -515.305048728107 10.3616100407453 -515.478126622342 9.63838995920989 -515.478126622336 8.93618533884642 -515.305048728091 8.29580575978082 -514.968951597708 7.75446775546369 -514.489367974741 7.34363192302266 -513.894169516142 7.08717454771194 -513.217946992867 29 30 3 31 3 30 28 29 3 32 3 31 27 28 3 5 3 32 26 27 3 4 21 22 4 22 23 4 23 24 4 24 25 4 25 26 4 26 3 1 5 6 1 3 5 7 1 6 20 21 4 8 1 7 9 1 8 10 1 9 11 1 10 12 1 11 2 13 14 2 14 15 2 15 16 2 16 17 2 17 18 2 18 19 2 19 20 2 20 4 2 1 13 13 1 12 
4 2 1 0.116666666666667
3 7.5 0 3 22.5 0 3 7.5 4 3 22.5 4 0 -500 15 -500 -1.46549439250521e-14 -504 15 -504 4 1 3 2 1 4 
28 26 1 0.116666666666667
-3 22.5 0 -2.91282545227816 23.2179469928627 0 -2.65636807695963 23.8941695161313 0 -2.2455322445133 24.4893679747224 0 -1.70419424019347 24.968951597681 0 -1.06381466112761 25.3050487280562 0 -0.361610040765968 25.4781266222942 0 0.36161004076597 25.4781266222942 0 1.06381466112761 25.3050487280562 0 1.70419424019347 24.968951597681 0 2.2455322445133 24.4893679747224 0 2.65636807695963 23.8941695161313 0 2.91282545227816 23.2179469928627 0 3 22.5 0 3 22.5 4 -3 22.5 4 -2.91282545227816 23.2179469928627 4 -2.65636807695963 23.8941695161313 4 -2.2455322445133 24.4893679747224 4 -1.70419424019347 24.968951597681 4 -1.06381466112761 25.3050487280562 4 -0.361610040765968 25.4781266222942 4 0.36161004076597 25.4781266222942 4 1.06381466112761 25.3050487280562 4 1.70419424019347 24.968951597681 4 2.2455322445133 24.4893679747224 4 2.65636807695963 23.8941695161313 4 2.91282545227816 23.2179469928627 4 3.14159265358979 -500 2.89993168023673 -500 2.65827070688367 -500 2.41660973353061 -500 2.17494876017755 -500 1.93328778682449 -500 1.69162681347143 -500 1.44996584011837 -500 1.2083048667653 -500 0.966643893412244 -500 0.724982920059183 -500 0.483321946706122 -500 0.241660973353062 -500 -8.9e-16 -500 -8.88178419700125e-16 -504 3.14159265358979 -504 2.89993168023673 -504 2.65827070688367 -504 2.41660973353061 -504 2.17494876017755 -504 1.93328778682449 -504 1.69162681347143 -504 1.44996584011837 -504 1.2083048667653 -504 0.966643893412244 -504 0.724982920059183 -504 0.483321946706122 -504 0.241660973353062 -504 13 14 15 13 15 28 12 28 27 12 13 28 11 27 26 11 12 27 10 25 24 10 26 25 10 11 26 9 10 24 8 23 22 8 24 23 8 9 24 7 8 22 6 22 21 6 7 22 5 21 20 5 6 21 4 20 19 4 5 20 3 19 18 3 4 19 2 17 16 2 18 17 2 3 18 1 2 16 
4 2 1 0.116666666666667
-3 7.5 0 -3 22.5 0 -3 7.5 4 -3 22.5 4 0 -500 15 -500 -1.4210854715202e-14 -504 15 -504 4 1 3 2 1 4 
28 26 1 0.116666666666667
3 7.5 0 3 7.5 4 2.91282545227816 6.78205300713733 0 2.65636807695963 6.1058304838687 0 2.24553224451331 5.51063202527762 0 1.70419424019347 5.03104840231903 0 1.06381466112761 4.69495127194376 0 0.361610040765972 4.52187337770584 0 -0.361610040765967 4.52187337770584 0 -1.0638146611276 4.69495127194375 0 -1.70419424019347 5.03104840231903 0 -2.2455322445133 5.51063202527761 0 -2.65636807695963 6.10583048386869 0 -2.91282545227816 6.78205300713733 0 -3 7.5 0 -3 7.5 4 2.91282545227816 6.78205300713733 4 2.65636807695963 6.1058304838687 4 2.24553224451331 5.51063202527762 4 1.70419424019347 5.03104840231903 4 1.06381466112761 4.69495127194376 4 0.361610040765972 4.52187337770584 4 -0.361610040765967 4.52187337770584 4 -1.0638146611276 4.69495127194375 4 -1.70419424019347 5.03104840231903 4 -2.2455322445133 5.51063202527761 4 -2.65636807695963 6.10583048386869 4 -2.91282545227816 6.78205300713733 4 6.28318530717959 -500 6.28318530717959 -504 6.04152433382653 -500 5.79986336047346 -500 5.5582023871204 -500 5.31654141376734 -500 5.07488044041428 -500 4.83321946706122 -500 4.59155849370816 -500 4.3498975203551 -500 4.10823654700204 -500 3.86657557364898 -500 3.62491460029592 -500 3.38325362694285 -500 3.14159265358979 -500 3.14159265358979 -504 6.04152433382653 -504 5.79986336047346 -504 5.5582023871204 -504 5.31654141376734 -504 5.07488044041428 -504 4.83321946706122 -504 4.59155849370816 -504 4.3498975203551 -504 4.10823654700204 -504 3.86657557364898 -504 3.62491460029592 -504 3.38325362694285 -504 15 16 28 14 15 28 13 28 27 13 14 28 12 27 26 12 13 27 11 25 24 11 26 25 11 12 26 10 11 24 9 23 22 9 24 23 9 10 24 8 9 22 7 22 21 7 8 22 6 21 20 6 7 21 5 20 19 5 6 20 4 19 18 4 5 19 3 18 17 3 4 18 1 17 2 1 3 17 
4 2 1 0.116666666666667
-10 30 20 -10 26.52667266566 20 10 30 20 10 26.52667266566 20 20 -470 20 -473.47332733434 0 -470 0 -473.47332733434 1 3 4 1 4 2 
3 1 1 0.116666666666667
-7 26 19.6461951724413 -7 2.70912696198541 4 -7 26 4 7.6461951724413 -13 -8 10.2908730380146 -8 -13 2 3 1 
32 32 1 0.116666666666667
-7 26 4 -7 26 19.6461951724413 7 26 4 7 26 19.6461951724413 3 26 7.49999999999969 2.99999999999995 26 12.4999999999997 2.91282545228802 26 6.78205300713233 2.65636807697718 26 6.10583048385713 2.24553224453606 26 5.5106320252583 1.70419424021888 26 5.03104840229157 1.06381466115326 26 4.69495127190848 0.361610040789792 26 4.52187337766373 -0.361610040745562 26 4.52187337765836 -1.0638146611116 26 4.69495127189268 -1.70419424018221 26 5.03104840226626 -2.24553224450652 26 5.51063202522495 -2.65636807695647 26 6.10583048381767 -2.91282545227735 26 6.78205300708907 -3 26 7.49999999995514 -3.00000000000009 26 12.500000000045 -2.91282545227743 26 13.2179469929108 -2.65636807695652 26 13.8941695161823 -2.24553224450652 26 14.489367974775 -1.70419424018215 26 14.9689515977337 -1.06381466111148 26 15.3050487281073 -0.36161004074538 26 15.4781266223416 0.36161004079002 26 15.4781266223361 1.06381466115352 26 15.3050487280913 1.70419424021913 26 14.9689515977081 2.24553224453628 26 14.4893679747412 2.65636807697732 26 13.8941695161423 2.91282545228806 26 13.217946992867 0 0 15.6461951724413 0 0 -14 15.6461951724413 -14 3.49999999999964 -10 8.49999999999963 -9.99999999999991 2.78205300713233 -9.91282545228802 2.10583048385713 -9.65636807697718 1.5106320252583 -9.24553224453606 1.03104840229157 -8.70419424021888 0.694951271908482 -8.06381466115326 0.521873377663727 -7.36161004078979 0.521873377658356 -6.63838995925444 0.694951271892682 -5.9361853388884 1.03104840226626 -5.29580575981779 1.51063202522495 -4.75446775549348 2.10583048381767 -4.34363192304353 2.78205300708907 -4.08717454772265 3.49999999995509 -4 8.50000000004479 -3.99999999999991 9.21794699291085 -4.08717454772257 9.89416951618228 -4.34363192304348 10.489367974775 -4.75446775549348 10.9689515977337 -5.29580575981785 11.3050487281073 -5.93618533888852 11.4781266223416 -6.63838995925462 11.4781266223361 -7.36161004079002 11.3050487280913 -8.06381466115351 10.9689515977081 -8.70419424021913 10.4893679747412 -9.24553224453627 9.8941695161423 -9.65636807697732 9.21794699286701 -9.91282545228806 10 3 9 8 9 3 11 3 10 7 8 3 12 3 11 5 7 3 6 5 3 1 13 14 1 14 15 1 15 16 1 16 17 1 17 18 1 18 19 4 30 31 4 31 32 4 32 6 4 6 3 29 30 4 28 29 4 27 28 4 20 1 19 26 27 4 2 20 21 2 21 22 2 22 23 2 23 24 2 24 25 2 25 26 2 1 20 2 26 4 1 3 13 13 3 12 
3 1 1 0.116666666666667
7 26 19.6461951724413 7 2.70912696198541 4 7 26 4 7.6461951724413 -13 -8 10.2908730380146 -8 -13 2 3 1 
32 32 1 0.116666666666667
-7 2.70912696198541 4 -7 26 4 7 2.70912696198541 4 7 26 4 3 7.5 4 3 22.5 4 2.91282545227816 6.78205300713733 4 2.65636807695963 6.1058304838687 4 2.24553224451331 5.51063202527762 4 1.70419424019347 5.03104840231903 4 1.06381466112761 4.69495127194376 4 0.361610040765972 4.52187337770584 4 -0.361610040765967 4.52187337770584 4 -1.0638146611276 4.69495127194375 4 -1.70419424019347 5.03104840231903 4 -2.2455322445133 5.51063202527761 4 -2.65636807695963 6.10583048386869 4 -2.91282545227816 6.78205300713733 4 -3 7.5 4 -3 22.5 4 -2.91282545227816 23.2179469928627 4 -2.65636807695963 23.8941695161313 4 -2.2455322445133 24.4893679747224 4 -1.70419424019347 24.968951597681 4 -1.06381466112761 25.3050487280562 4 -0.361610040765968 25.4781266222942 4 0.36161004076597 25.4781266222942 4 1.06381466112761 25.3050487280562 4 1.70419424019347 24.968951597681 4 2.2455322445133 24.4893679747224 4 2.65636807695963 23.8941695161313 4 2.91282545227816 23.2179469928627 4 2.70912696198541 0 26 0 2.70912696198541 -14 26 -14 7.5 -10 22.5 -10 6.78205300713733 -9.91282545227816 6.1058304838687 -9.65636807695963 5.51063202527762 -9.24553224451331 5.03104840231903 -8.70419424019347 4.69495127194376 -8.06381466112761 4.52187337770584 -7.36161004076597 4.52187337770584 -6.63838995923403 4.69495127194375 -5.9361853388724 5.03104840231903 -5.29580575980653 5.51063202527761 -4.7544677554867 6.10583048386869 -4.34363192304037 6.78205300713733 -4.08717454772184 7.49999999999998 -4 22.5 -4 23.2179469928627 -4.08717454772184 23.8941695161313 -4.34363192304037 24.4893679747224 -4.7544677554867 24.968951597681 -5.29580575980653 25.3050487280562 -5.9361853388724 25.4781266222942 -6.63838995923403 25.4781266222942 -7.36161004076597 25.3050487280562 -8.06381466112761 24.968951597681 -8.70419424019347 24.4893679747224 -9.2455322445133 23.8941695161313 -9.65636807695963 23.2179469928627 -9.91282545227816 10 3 9 8 9 3 11 3 10 7 8 3 12 3 11 5 7 3 13 3 12 1 13 14 1 14 15 1 15 16 1 16 17 1 17 18 1 3 13 19 1 18 4 5 3 6 5 4 32 6 4 31 32 4 30 31 4 29 30 4 28 29 4 27 28 4 2 19 20 2 20 21 2 21 22 2 22 23 2 23 24 2 24 25 2 25 26 2 1 19 4 2 26 4 26 27 
4 2 1 0.116666666666667
2.99999999999995 30 12.4999999999997 3 30 7.49999999999969 3 26 7.49999999999969 2.99999999999995 26 12.4999999999997 5.00000000000005 -470 5.17e-14 -470 2.22044604925031e-16 -474 5.00000000000005 -474 4 2 3 1 2 4 
28 26 1 0.116666666666667
-3.00000000000009 30 12.500000000045 -2.91282545227739 30 13.217946992911 -2.65636807695645 30 13.8941695161824 -2.24553224450642 30 14.4893679747751 -1.70419424018205 30 14.9689515977338 -1.06381466111138 30 15.3050487281073 -0.361610040745282 30 15.4781266223416 0.361610040790105 30 15.4781266223361 1.06381466115358 30 15.3050487280912 1.70419424021918 30 14.968951597708 2.24553224453631 30 14.4893679747412 2.65636807697734 30 13.8941695161423 2.91282545228806 30 13.217946992867 2.99999999999995 30 12.4999999999997 2.99999999999995 26 12.4999999999997 -3.00000000000009 26 12.500000000045 -2.91282545227743 26 13.2179469929108 -2.65636807695652 26 13.8941695161823 -2.24553224450652 26 14.489367974775 -1.70419424018215 26 14.9689515977337 -1.06381466111148 26 15.3050487281073 -0.36161004074538 26 15.4781266223416 0.36161004079002 26 15.4781266223361 1.06381466115352 26 15.3050487280913 1.70419424021913 26 14.9689515977081 2.24553224453628 26 14.4893679747412 2.65636807697732 26 13.8941695161423 2.91282545228806 26 13.217946992867 3.14159265358976 -470 2.89993168023554 -470 2.65827070688133 -470 2.41660973352711 -470 2.17494876017289 -470 1.93328778681867 -470 1.69162681346445 -470 1.44996584011023 -470 1.20830486675601 -470 0.966643893401793 -470 0.724982920047574 -470 0.483321946693355 -470 0.241660973339136 -470 -1.508216e-11 -470 -1.50821577449278e-11 -474 3.14159265358976 -474 2.8999316802356 -474 2.65827070688138 -474 2.41660973352715 -474 2.17494876017293 -474 1.93328778681871 -474 1.69162681346448 -474 1.44996584011026 -474 1.20830486675604 -474 0.966643893401812 -474 0.724982920047589 -474 0.483321946693366 -474 0.241660973339142 -474 13 14 15 13 15 28 12 28 27 12 13 28 11 27 26 11 12 27 10 26 25 10 11 26 9 25 24 9 10 25 8 24 23 8 9 24 7 23 22 7 8 23 6 22 21 6 7 22 5 21 20 5 6 21 4 20 19 4 5 20 3 19 18 3 4 19 2 18 17 2 3 18 1 17 16 1 2 17 
4 2 1 0.116666666666667
-3.00000000000009 30 12.500000000045 -3 30 7.49999999995514 -3 26 7.49999999995514 -3.00000000000009 26 12.500000000045 5.00000000008994 -470 5.17e-14 -470 2.22044604925031e-16 -474 5.00000000008994 -474 4 2 3 1 2 4 
28 26 1 0.116666666666667
3 30 7.49999999999969 2.91282545228802 30 6.78205300713233 2.65636807697718 30 6.10583048385713 2.24553224453606 30 5.5106320252583 1.70419424021888 30 5.03104840229157 1.06381466115326 30 4.69495127190848 0.361610040789792 30 4.52187337766373 -0.361610040745562 30 4.52187337765836 -1.0638146611116 30 4.69495127189268 -1.70419424018221 30 5.03104840226626 -2.24553224450652 30 5.51063202522495 -2.65636807695647 30 6.10583048381767 -2.91282545227735 30 6.78205300708906 -3 30 7.49999999995514 -3 26 7.49999999995514 3 26 7.49999999999969 2.91282545228802 26 6.78205300713233 2.65636807697718 26 6.10583048385713 2.24553224453606 26 5.5106320252583 1.70419424021888 26 5.03104840229157 1.06381466115326 26 4.69495127190848 0.361610040789792 26 4.52187337766373 -0.361610040745562 26 4.52187337765836 -1.0638146611116 26 4.69495127189268 -1.70419424018221 26 5.03104840226626 -2.24553224450652 26 5.51063202522495 -2.65636807695647 26 6.10583048381767 -2.91282545227735 26 6.78205300708907 6.28318530719447 -470 6.04152433384026 -470 5.79986336048605 -470 5.55820238713184 -470 5.31654141377764 -470 5.07488044042343 -470 4.83321946706922 -470 4.59155849371501 -470 4.3498975203608 -470 4.1082365470066 -470 3.86657557365239 -470 3.62491460029818 -470 3.38325362694397 -470 3.14159265358976 -470 3.14159265358976 -474 6.28318530719447 -474 6.04152433384026 -474 5.79986336048605 -474 5.55820238713184 -474 5.31654141377764 -474 5.07488044042343 -474 4.83321946706922 -474 4.59155849371501 -474 4.3498975203608 -474 4.1082365470066 -474 3.86657557365239 -474 3.62491460029818 -474 3.38325362694397 -474 13 14 15 13 15 28 12 28 27 12 13 28 11 27 26 11 12 27 10 26 25 10 11 26 9 25 24 9 10 25 8 24 23 8 9 24 7 23 22 7 8 23 6 22 21 6 7 22 5 21 20 5 6 21 4 19 18 4 20 19 4 5 20 3 18 17 3 4 18 2 3 17 1 17 16 1 2 17 

TShapes 126
Ve
1.50000002e-07
-10 0 0
0 0

0101101
*
Ve
1.5e-07
10 0 0
0 0

0101101
*
Ed
 1.5e-07 1 1 0
1  1 0 2e-15 20
6  1 1 9
6  2 2 0
0

0101000
+126 11 -125 11 *
Ve
1.50000077e-07
10 0 2.18007984823225
0 0

0101101
*
Ed
 1.00000002e-07 1 1 0
1  2 0 500 502.180079848232
6  3 1 12
6  4 3 12
0

0101000
+125 13 -123 13 *
Ve
1.50000078e-07
-10 0 2.18007984823225
0 0

0101101
*
Ed
 1.5e-07 1 1 0
1  3 0 -265 -245
2  1 2 14 -265 -245
6  5 1 0
6  6 4 15
0

0101000
+123 16 -121 16 *
Ed
 1.00000002e-07 1 1 0
1  4 0 500 502.180079848232
6  7 1 12
6  8 5 12
0

0101000
+126 13 -121 13 *
Wi

0101100
-124 7 -122 8 -120 0 +119 8 *
Fa
0  1e-07 1 8
2  1
0101000
+118 0 *
Ve
1.5e-07
10 30 -5e-15
0 0

0101101
*
Ve
1.5e-07
-10 30 -5e-15
0 0

0101101
*
Ed
 1.5e-07 1 1 0
1  5 0 -10 10
6  9 2 0
6  10 6 0
0

0101000
+116 11 -115 11 *
Ed
 1.00000002e-07 1 1 0
1  6 0 470 500
6  11 2 21
6  12 3 22
0

0101000
+116 23 -125 23 *
Ed
 1.00000002e-07 1 1 0
1  7 0 470 500
6  13 2 21
6  14 5 22
0

0101000
+115 23 -126 23 *
Wi

0101100
+114 0 -113 20 +124 0 +112 20 *
Ve
1.50000002e-07
3 7.5 0
0 0

0101101
*
Ve
1.50000007e-07
3 22.5 0
0 0

0101101
*
Ed
 1.5e-07 1 1 0
1  8 0 -246.25 -231.25
2  2 4 24 -246.25 -231.25
6  15 2 0
6  16 7 25
0

0101000
+110 11 -109 11 *
Ve
1.50000006e-07
-3 22.5 0
0 0

0101101
*
Ed
 1e-07 1 1 0
1  9 0 3.14159265358979 6.28318530717959
2  3 5 24 3.14159265358979 6.28318530717959
6  17 8 25
6  18 2 0
0

0101000
+107 11 -109 11 *
Ve
1.50000002e-07
-3 7.5 0
0 0

0101101
*
Ed
 1.5e-07 1 1 0
1  10 0 -246.25 -231.25
2  4 6 24 -246.25 -231.25
6  19 2 0
6  20 9 25
0

0101000
+105 11 -107 11 *
Ed
 1e-07 1 1 0
1  11 0 -1e-15 3.14159265358979
2  5 7 24 -1e-15 3.14159265358979
6  21 10 25
6  22 2 0
0

0101000
+110 11 -105 11 *
Wi

0101100
-108 0 +106 0 +104 0 +103 0 *
Fa
0  1e-07 3 20
2  2
0101000
+111 0 +102 0 *
Ve
1.50000002e-07
10 30 20
0 0

0101101
*
Ed
 1.00000002e-07 1 1 0
1  12 0 500 520
6  23 3 12
6  24 6 26
0

0101000
+116 13 -100 13 *
Ve
1.50000235e-07
10 26.52667266566 20
0 0

0101101
*
Ed
 1.00000002e-07 1 1 0
1  13 0 470 473.47332733434
6  25 3 22
6  26 11 22
0

0101000
+100 23 -98 23 *
Ed
 1.5e-07 1 1 0
1  14 0 -150.187778505941 -118.231340704984
2  6 2 14 -150.187778505941 -118.231340704984
6  27 3 0
6  28 4 15
0

0101000
+98 16 -123 16 *
Wi

0101100
-99 8 -97 27 -96 0 +122 8 +113 27 *
Fa
0  1e-07 8 8
2  3
0101000
+95 0 *
Ve
1.50000235e-07
-10 26.52667266566 20
0 0

0101101
*
Ed
 1.5e-07 1 1 0
1  15 0 235 255
2  7 2 14 235 255
6  29 4 15
6  30 11 0
0

0101000
+93 16 -98 16 *
Ed
 1.5e-07 1 1 0
1  16 0 105.780012667008 137.736450467965
2  8 2 14 105.780012667008 137.736450467965
6  31 4 15
6  32 5 0
0

0101000
+121 16 -93 16 *
Wi

0101100
+96 4 +92 4 +120 4 +91 4 *
Ve
1.50000004e-07
-7 26 19.6461951724413
0 0

0101101
*
Ve
1.50000003e-07
-7 2.70912696198541 4
0 0

0101101
*
Ed
 1.5e-07 1 1 0
1  17 0 -1.40403083124819 26.6542690147339
2  9 2 28 -1.40403083124819 26.6542690147339
2  10 9 31 -1.40403083124819 26.6542690147339
6  33 4 0
6  34 12 0
0

0101000
+89 0 -88 0 *
Ve
1.50000004e-07
7 26 19.6461951724413
0 0

0101101
*
Ed
 1.5e-07 1 1 0
1  18 0 -260.5 -246.5
2  11 2 28 -260.5 -246.5
2  12 10 31 -260.5 -246.5
6  35 4 0
6  36 13 0
0

0101000
+86 0 -89 0 *
Ve
1.50000003e-07
7 2.70912696198541 4
0 0

0101101
*
Ed
 1.5e-07 1 1 0
1  19 0 -1.40403083124819 26.6542690147339
2  13 2 28 -1.40403083124819 26.6542690147339
2  14 9 33 -1.40403083124819 26.6542690147339
6  37 4 0
6  38 14 0
0

0101000
+86 0 -84 0 *
Ed
 1.5e-07 1 1 0
1  20 0 246.5 260.5
2  15 2 28 246.5 260.5
2  16 11 31 246.5 260.5
6  39 4 0
6  40 15 0
0

0101000
+88 0 -84 0 *
Wi

0101100
+87 0 +85 0 -83 0 +82 0 *
Fa
0  1e-07 2 28
2  4
0101000
+90 0 +81 0 *
Ve
1.5e-07
-10 30 20
0 0

0101101
*
Ed
 1.00000002e-07 1 1 0
1  21 0 470 473.47332733434
6  41 5 22
6  42 11 22
0

0101000
+79 23 -93 23 *
Ed
 1.00000002e-07 1 1 0
1  22 0 500 520
6  43 5 12
6  44 6 26
0

0101000
+115 13 -79 13 *
Wi

0101100
-112 27 -119 8 -91 0 +78 27 +77 8 *
Fa
0  1e-07 12 8
2  5
0101000
+76 0 *
Ed
 1.5e-07 1 1 0
1  23 0 -20 -2e-15
6  45 6 0
6  46 11 9
0

0101000
+79 11 -100 11 *
Wi

0101100
-114 0 -77 24 -74 0 +99 24 *
Ve
1.50000098e-07
2.99999999999995 30 12.4999999999997
0 0

0101101
*
Ve
1.50000028e-07
3 30 7.49999999999969
0 0

0101101
*
Ed
 1.5e-07 1 1 0
1  24 0 -258.75 -253.75
2  17 14 20 -258.75 -253.75
6  47 6 0
6  48 16 25
0

0101000
+72 11 -71 11 *
Ve
1.50000055e-07
-3.00000000000009 30 12.500000000045
0 0

0101101
*
Ed
 1e-07 1 1 0
1  25 0 3.14159265358982 6.28318530719467
2  18 15 20 3.14159265358982 6.28318530719467
6  49 17 25
6  50 6 0
0

0101000
+69 11 -72 11 *
Ve
1.50000043e-07
-3 30 7.49999999995514
0 0

0101101
*
Ed
 1.5e-07 1 1 0
1  26 0 -258.750000000068 -253.749999999978
2  19 16 20 -258.750000000068 -253.749999999978
6  51 6 0
6  52 18 25
0

0101000
+69 11 -67 11 *
Ed
 1e-07 1 1 0
1  27 0 -1.4881e-11 3.14159265358982
2  20 17 20 -1.4881e-11 3.14159265358982
6  53 19 25
6  54 6 0
0

0101000
+71 11 -67 11 *
Wi

0101100
+70 0 +68 0 -66 0 +65 0 *
Fa
0  1e-07 13 24
2  6
0101000
+73 0 +64 0 *
Ve
1.50000004e-07
3 22.5 4
0 0

0101101
*
Ed
 1e-07 1 1 0
1  28 0 500 504
2  21 5 0 500 504
4 G1 4 0 5 0
2  22 4 0 500 504
6  55 8 35
6  56 7 35
0

0101000
+109 13 -62 35 *
Ve
1.50000014e-07
3 7.5 4
0 0

0101101
*
Ed
 1.5e-07 1 1 0
1  29 0 3.74999999999999 18.75
2  23 4 34 3.74999999999999 18.75
2  24 11 31 3.74999999999999 18.75
6  57 7 0
6  58 15 0
0

0101000
+60 0 -62 0 *
Ed
 1e-07 1 1 0
1  30 0 500 504
2  25 7 0 500 504
4 G1 4 0 7 0
2  26 4 0 500 504
6  59 10 35
6  60 7 35
0

0101000
+110 13 -60 35 *
Wi

0101100
-108 17 -61 34 +59 0 +58 34 *
Fa
0  1e-07 4 34
2  7
0101000
+57 0 *
Ve
1.5e-07
-3 22.5 4
0 0

0101101
*
Ed
 1e-07 1 1 0
1  31 0 500 504
2  27 5 0 500 504
4 G1 5 0 6 0
2  28 6 0 500 504
6  61 8 35
6  62 9 35
0

0101000
+107 13 -55 35 *
Ed
 1e-07 1 1 0
1  32 0 3.14159265358979 6.28318530717959
2  29 5 34 3.14159265358979 6.28318530717959
2  30 11 31 3.14159265358979 6.28318530717959
6  63 8 0
6  64 15 0
0

0101000
+55 0 -62 0 *
Wi

0101100
+106 17 -54 34 -53 0 +61 34 *
Fa
0  1e-07 5 34
2  8
0101000
+52 0 *
Ve
1.50000014e-07
-3 7.5 4
0 0

0101101
*
Ed
 1.5e-07 1 1 0
1  33 0 3.74999999999998 18.75
2  31 6 34 3.74999999999998 18.75
2  32 11 31 3.74999999999998 18.75
6  65 9 0
6  66 15 0
0

0101000
+50 0 -55 0 *
Ed
 1e-07 1 1 0
1  34 0 500 504
2  33 7 0 500 504
4 G1 6 0 7 0
2  34 6 0 500 504
6  67 10 35
6  68 9 35
0

0101000
+105 13 -50 35 *
Wi

0101100
-104 17 -54 34 +49 0 +48 34 *
Fa
0  1e-07 6 34
2  9
0101000
+47 0 *
Ed
 1e-07 1 1 0
1  35 0 -1e-15 3.14159265358979
2  35 7 34 -1e-15 3.14159265358979
2  36 11 31 -1e-15 3.14159265358979
6  69 10 0
6  70 15 0
0

0101000
+60 0 -50 0 *
Wi

0101100
-58 34 -45 0 +48 34 +103 17 *
Fa
0  1e-07 7 34
2  10
0101000
+44 0 *
Wi

0101100
-78 27 -92 0 +97 27 +74 7 *
Fa
0  1e-07 18 27
2  11
0101000
+42 0 *
Ve
1e-07
0 26 4
0 0

0101101
*
Ed
 1e-07 1 1 0
1  36 0 0 15.6461951724413
2  37 10 40 0 15.6461951724413
2  38 10 41 0 15.6461951724413
2  39 9 40 0 15.6461951724413
6  71 12 42
6  72 13 42
0

0101000
+40 43 -89 42 *
Ed
 1e-07 1 1 0
1  37 0 2.70912696198541 26
2  40 11 40 2.70912696198541 26
2  41 11 41 2.70912696198541 26
2  42 9 40 2.70912696198541 26
6  73 12 42
6  74 15 42
0

0101000
+88 42 -40 43 *
Wi

0101100
+87 0 +39 39 +38 39 *
Fa
0  1e-07 9 31
2  12
0101000
+37 0 *
Ed
 1e-07 1 1 0
1  36 0 0 15.6461951724413
2  37 10 40 0 15.6461951724413
2  38 10 41 0 15.6461951724413
2  39 9 40 0 15.6461951724413
6  75 13 45
6  76 14 45
0

0101000
+40 43 -86 45 *
Ed
 1e-07 1 1 0
1  38 0 0 14
2  43 11 0 0 14
2  44 10 0 0 14
6  77 13 46
6  78 15 46
0

0101000
+40 38 -40 47 *
Wi

0101100
-39 39 +85 0 +35 44 +34 31 *
Ve
1.50000053e-07
3 26 7.49999999999969
0 0

0101101
*
Ve
1.50000077e-07
2.99999999999995 26 12.4999999999997
0 0

0101101
*
Ed
 1.5e-07 1 1 0
1  39 0 1.74999999999987 6.74999999999998
2  45 14 48 1.74999999999987 6.74999999999998
2  46 10 31 1.74999999999987 6.74999999999998
6  79 13 0
6  80 16 0
0

0101000
+32 0 -31 0 *
Ve
1.50000046e-07
-3.00000000000009 26 12.500000000045
0 0

0101101
*
Ed
 1e-07 1 1 0
1  40 0 3.14159265358976 6.28318530719467
2  47 15 48 3.14159265358976 6.28318530719467
2  48 10 31 3.14159265358976 6.28318530719467
6  81 17 0
6  82 13 0
0

0101000
+29 0 -31 0 *
Ve
1.50000053e-07
-3 26 7.49999999995514
0 0

0101101
*
Ed
 1.5e-07 1 1 0
1  41 0 1.74999999997756 6.75000000006754
2  49 16 48 1.74999999997756 6.75000000006754
2  50 10 31 1.74999999997756 6.75000000006754
6  83 13 0
6  84 18 0
0

0101000
+27 0 -29 0 *
Ed
 1e-07 1 1 0
1  42 0 -1.4881e-11 3.14159265358982
2  51 17 48 -1.4881e-11 3.14159265358982
2  52 10 31 -1.4881e-11 3.14159265358982
6  85 19 0
6  86 13 0
0

0101000
+32 0 -27 0 *
Wi

0101100
-30 0 +28 0 +26 0 +25 0 *
Fa
0  1e-07 10 31
2  13
0101000
+33 0 +24 0 *
Ed
 1e-07 1 1 0
1  37 0 2.70912696198541 26
2  40 11 40 2.70912696198541 26
2  41 11 41 2.70912696198541 26
2  42 9 40 2.70912696198541 26
6  87 14 45
6  88 15 45
0

0101000
+84 45 -40 43 *
Wi

0101100
+83 0 +35 44 +22 44 *
Fa
0  1e-07 9 33
2  14
0101000
+21 0 *
Wi

0101100
-38 39 -34 31 +22 44 +82 0 *
Wi

0101100
-59 0 +53 0 +49 0 +45 0 *
Fa
0  1e-07 11 31
2  15
0101000
+19 0 +18 0 *
Ed
 1.00000046e-07 1 1 0
1  43 0 470 474
2  53 15 0 470 474
4 G1 14 0 15 0
2  54 14 0 470 474
6  89 17 49
6  90 16 49
0

0101000
+72 23 -31 49 *
Ed
 1e-07 1 1 0
1  44 0 470 474
2  55 17 0 470 474
4 G1 14 0 17 0
2  56 14 0 470 474
6  91 19 49
6  92 16 49
0

0101000
+71 23 -32 49 *
Wi

0101100
+70 17 -16 48 +30 0 +15 48 *
Fa
0  1e-07 14 48
2  16
0101000
+14 0 *
Ed
 1e-07 1 1 0
1  45 0 470 474
2  57 15 0 470 474
4 G1 15 0 16 0
2  58 16 0 470 474
6  93 17 49
6  94 18 49
0

0101000
+69 23 -29 49 *
Wi

0101100
+68 17 -12 48 -28 0 +16 48 *
Fa
0  1e-07 15 48
2  17
0101000
+11 0 *
Ed
 1e-07 1 1 0
1  46 0 470 474
2  59 17 0 470 474
4 G1 16 0 17 0
2  60 16 0 470 474
6  95 19 49
6  96 18 49
0

0101000
+67 23 -27 49 *
Wi

0101100
+66 17 -12 48 +26 0 +9 48 *
Fa
0  1e-07 16 48
2  18
0101000
+8 0 *
Wi

0101100
+65 17 -15 48 -25 0 +9 48 *
Fa
0  1e-07 17 48
2  19
0101000
+6 0 *
Sh

0101100
-117 4 -101 17 -94 4 -80 0 -75 4 -63 17 +56 0 +51 0 -46 0 +43 0 
-41 4 +36 0 +23 0 -20 0 +17 0 +13 0 +10 0 -7 0 +5 0 *
So

0100000
+4 0 *
Co

0100000
+3 0 *
Co

1100000
+2 1 *

+1 0 